<svg width="33" height="33" viewBox="0 0 33 33" fill="none" xmlns="http://www.w3.org/2000/svg">
<rect x="0.727478" y="0.404358" width="31.6524" height="31.6529" rx="15.4002" fill="#FF8602"/>
<path d="M14.5125 16.3668C14.5125 15.1652 15.486 14.1909 16.6873 14.1909C17.8885 14.1909 18.8625 15.1652 18.8625 16.3668C18.8625 17.5684 17.8885 18.5427 16.6873 18.5427C15.486 18.5427 14.5125 17.5684 14.5125 16.3668ZM13.3366 16.3668C13.3366 18.2179 14.8367 19.7185 16.6873 19.7185C18.5378 19.7185 20.0379 18.2179 20.0379 16.3668C20.0379 14.5157 18.5378 13.0151 16.6873 13.0151C14.8367 13.0151 13.3366 14.5157 13.3366 16.3668ZM19.3875 12.8822C19.3875 13.0372 19.4333 13.1886 19.5193 13.3175C19.6053 13.4463 19.7276 13.5467 19.8706 13.6061C20.0137 13.6654 20.1711 13.681 20.323 13.6508C20.4749 13.6207 20.6145 13.5461 20.724 13.4366C20.8336 13.3271 20.9082 13.1876 20.9385 13.0357C20.9688 12.8837 20.9533 12.7262 20.8941 12.5831C20.8349 12.4399 20.7346 12.3176 20.6059 12.2315C20.4771 12.1453 20.3258 12.0993 20.1709 12.0993H20.1706C19.963 12.0994 19.7639 12.1819 19.6171 12.3287C19.4703 12.4755 19.3877 12.6746 19.3875 12.8822ZM14.0511 21.6798C13.4149 21.6509 13.0691 21.5449 12.8393 21.4553C12.5346 21.3367 12.3173 21.1954 12.0887 20.9671C11.8602 20.7388 11.7187 20.5215 11.6006 20.2168C11.5111 19.987 11.4051 19.641 11.3762 19.0047C11.3445 18.3166 11.3382 18.11 11.3382 16.3669C11.3382 14.6238 11.345 14.4177 11.3762 13.7291C11.4051 13.0927 11.5119 12.7474 11.6006 12.5169C11.7192 12.2122 11.8605 11.9947 12.0887 11.7661C12.3169 11.5375 12.5341 11.396 12.8393 11.2779C13.069 11.1883 13.4149 11.0823 14.0511 11.0533C14.7389 11.0217 14.9455 11.0154 16.6873 11.0154C18.4291 11.0154 18.6359 11.0222 19.3243 11.0533C19.9605 11.0823 20.3057 11.1891 20.536 11.2779C20.8407 11.396 21.0581 11.5378 21.2866 11.7661C21.5151 11.9944 21.6561 12.2122 21.7747 12.5169C21.8643 12.7467 21.9702 13.0927 21.9992 13.7291C22.0308 14.4177 22.0371 14.6238 22.0371 16.3669C22.0371 18.11 22.0308 18.3161 21.9992 19.0047C21.9702 19.641 21.8637 19.9869 21.7747 20.2168C21.6561 20.5215 21.5148 20.739 21.2866 20.9671C21.0584 21.1952 20.8407 21.3367 20.536 21.4553C20.3064 21.5449 19.9605 21.6509 19.3243 21.6798C18.6365 21.7115 18.4298 21.7178 16.6873 21.7178C14.9447 21.7178 14.7387 21.7115 14.0511 21.6798ZM13.997 9.87907C13.3024 9.91071 12.8277 10.0209 12.4132 10.1822C11.9838 10.3489 11.6204 10.5724 11.2572 10.9351C10.8941 11.2978 10.6712 11.662 10.5046 12.0914C10.3433 12.5063 10.2331 12.9809 10.2015 13.6757C10.1693 14.3717 10.162 14.5942 10.162 16.3668C10.162 18.1394 10.1693 18.3619 10.2015 19.0579C10.2331 19.7528 10.3433 20.2273 10.5046 20.6422C10.6712 21.0714 10.8941 21.4359 11.2572 21.7985C11.6204 22.161 11.9838 22.3843 12.4132 22.5514C12.8285 22.7127 13.3024 22.8229 13.997 22.8545C14.6931 22.8862 14.9152 22.8941 16.6873 22.8941C18.4593 22.8941 18.6818 22.8867 19.3775 22.8545C20.0722 22.8229 20.5466 22.7127 20.9614 22.5514C21.3904 22.3843 21.7541 22.1612 22.1173 21.7985C22.4805 21.4358 22.7029 21.0714 22.87 20.6422C23.0313 20.2273 23.1419 19.7527 23.173 19.0579C23.2047 18.3614 23.212 18.1394 23.212 16.3668C23.212 14.5942 23.2047 14.3717 23.173 13.6757C23.1414 12.9808 23.0313 12.5061 22.87 12.0914C22.7029 11.6622 22.4799 11.2984 22.1173 10.9351C21.7547 10.5718 21.3904 10.3489 20.9619 10.1822C20.5466 10.0209 20.0722 9.91019 19.378 9.87907C18.6823 9.84742 18.4599 9.83954 16.6878 9.83954C14.9157 9.83954 14.6931 9.8469 13.997 9.87907Z" fill="white"/>
</svg>
